<?xml version="1.0" encoding="UTF-8" standalone="no"?>
<!-- Created with Inkscape (http://www.inkscape.org/) -->

<svg
   width="48"
   height="48"
   viewBox="0 0 48 48"
   version="1.1"
   id="svg5"
   sodipodi:docname="favicon.svg"
   inkscape:version="1.1.1 (3bf5ae0d25, 2021-09-20)"
   xmlns:inkscape="http://www.inkscape.org/namespaces/inkscape"
   xmlns:sodipodi="http://sodipodi.sourceforge.net/DTD/sodipodi-0.dtd"
   xmlns="http://www.w3.org/2000/svg"
   xmlns:svg="http://www.w3.org/2000/svg">
  <sodipodi:namedview
     id="namedview7"
     pagecolor="#ffffff"
     bordercolor="#666666"
     borderopacity="1.0"
     inkscape:pageshadow="2"
     inkscape:pageopacity="0.0"
     inkscape:pagecheckerboard="0"
     inkscape:document-units="px"
     showgrid="true"
     inkscape:zoom="8.4583333"
     inkscape:cx="28.669951"
     inkscape:cy="14.837438"
     inkscape:window-width="1920"
     inkscape:window-height="1001"
     inkscape:window-x="-9"
     inkscape:window-y="-9"
     inkscape:window-maximized="1"
     inkscape:current-layer="layer1">
    <inkscape:grid
       type="xygrid"
       id="grid824" />
  </sodipodi:namedview>
  <defs
     id="defs2">
    <linearGradient
       id="linearGradient13102"
       inkscape:swatch="solid">
      <stop
         style="stop-color:#ffff00;stop-opacity:1;"
         offset="0"
         id="stop13100" />
    </linearGradient>
  </defs>
  <g
     inkscape:label="Warstwa 1"
     inkscape:groupmode="layer"
     id="layer1"
     style="display:inline">
    <g
       aria-label="D"
       id="text8013"
       style="font-size:40px;line-height:1.25"
       transform="matrix(1.2673267,0,0,1.427581,12.876823,49.755119)">
      <path
         d="m -3.8481178,-29.509102 v 22.6757814 h 4.76562497 q 6.03515623,0 8.82812503,-2.734375 2.8124998,-2.7343754 2.8124998,-8.6328124 0,-5.859375 -2.8124998,-8.574219 -2.7929688,-2.734375 -8.82812503,-2.734375 z m -3.9453125,-3.242187 h 8.10546872 q 8.47656248,0 12.44140658,3.535156 3.964843,3.515625 3.964843,11.015625 0,7.539062 -3.984375,11.0742186 -3.9843746,3.5351563 -12.42187458,3.5351563 H -7.7934303 Z"
         id="path15840" />
    </g>
    <g
       aria-label="S"
       id="text11918"
       style="font-size:40px;line-height:1.25;font-family:Roboto;-inkscape-font-specification:Roboto;fill:#ae119a;fill-opacity:1"
       transform="matrix(1.4224048,0,0,1.4116426,14.400097,49.704367)">
      <path
         d="m 11.024515,-16.685634 q -4.8242187,-1.386718 -7.0312499,-3.398437 -2.1875,-2.03125 -2.1875,-5 0,-3.359375 2.6757812,-5.546875 2.6953125,-2.207031 6.9921877,-2.207031 2.929687,0 5.214844,1.132812 2.304687,1.132813 3.554687,3.125 1.269531,1.992188 1.269531,4.355469 h -3.769531 q 0,-2.578125 -1.640625,-4.042969 -1.640625,-1.484375 -4.628906,-1.484375 -2.7734377,0 -4.3359377,1.230469 -1.5429687,1.210937 -1.5429687,3.378906 0,1.738281 1.4648437,2.949219 1.484375,1.191406 5.0195317,2.1875 3.554687,0.996094 5.546875,2.207031 2.011718,1.191406 2.96875,2.792969 0.976562,1.601562 0.976562,3.769531 0,3.4570313 -2.695312,5.5468751 -2.695313,2.0703125 -7.207032,2.0703125 -2.9296872,0 -5.4687497,-1.1132813 Q 3.6612338,-5.8653212 2.2745151,-7.8184462 0.90732759,-9.7715712 0.90732759,-12.25204 H 4.6768588 q 0,2.5781251 1.8945313,4.0820313 1.9140625,1.484375 5.0976559,1.484375 2.96875,0 4.550782,-1.2109375 1.582031,-1.2109375 1.582031,-3.3007808 0,-2.089844 -1.464844,-3.222657 -1.464844,-1.152343 -5.3125,-2.265625 z"
         id="path15843"
         style="fill:#ae119a;fill-opacity:1" />
    </g>
  </g>
</svg>
